<svg xmlns="http://www.w3.org/2000/svg" version="1.1" xmlns:xlink="http://www.w3.org/1999/xlink" xmlns:svgjs="http://svgjs.dev/svgjs" width="1000" height="1000" viewBox="0 0 1000 1000"><g transform="matrix(1,0,0,1,0,0.00015554596637912255)"><svg viewBox="0 0 280 280" data-background-color="#77d4fc" preserveAspectRatio="xMidYMid meet" height="1000" width="1000" xmlns="http://www.w3.org/2000/svg" xmlns:xlink="http://www.w3.org/1999/xlink"><g id="tight-bounds" transform="matrix(1,0,0,1,0,-0.0000435528705793331)"><svg viewBox="0 0 280 280" height="280" width="280"><g><svg viewBox="0 0 280 280" height="280" width="280"><g><svg viewBox="0 0 280 280" height="280" width="280"><g id="textblocktransform"><svg viewBox="0 0 280 280" height="280" width="280" id="textblock"><g><svg viewBox="0 0 280 280" height="280" width="280"><g transform="matrix(1,0,0,1,90.50252531694167,96.10399142800327)"><svg viewBox="0 0 98.99494936611666 87.79201714399346" height="87.79201714399346" width="98.99494936611666"><g><svg xmlns="http://www.w3.org/2000/svg" xmlns:xlink="http://www.w3.org/1999/xlink" version="1.1" x="0" y="0" viewBox="2.000001907348633 30.69999885559082 508.0999755859375 450.5999755859375" enable-background="new 0 0 512 512" xml:space="preserve" height="87.79201714399346" width="98.99494936611666" class="icon-o-0" data-fill-palette-color="accent" id="o-0"><g fill="#000000" data-fill-palette-color="accent"><path d="M192.9 417.7c3.6-5.2 5.6-11.6 5.6-18.3 0-18.1-14.7-32.8-32.8-32.8H51.2c-18.1 0-32.8 14.7-32.8 32.8 0 6.8 2.1 13.1 5.6 18.3-12.8 4.5-22 16.5-22 30.8 0 18.1 14.7 32.8 32.8 32.8h147.4c18.1 0 32.8-14.7 32.8-32.8C214.9 434.3 205.7 422.2 192.9 417.7zM51.2 383h114.6c9 0 16.4 7.3 16.4 16.4 0 9-7.4 16.4-16.4 16.4H51.2c-9 0-16.4-7.3-16.4-16.4C34.8 390.3 42.1 383 51.2 383zM182.2 464.9H34.8c-9 0-16.4-7.3-16.4-16.4 0-9 7.4-16.4 16.4-16.4h16.4 114.6 16.4c9 0 16.4 7.3 16.4 16.4C198.5 457.6 191.2 464.9 182.2 464.9z" fill="#000000" data-fill-palette-color="accent"></path><path d="M477.2 112.6c-11.8 0-22.5 6.4-28.3 16.4H190.7c-10.7 0-19.7 6.9-23.1 16.4h-17c2.3-6.8 5.5-13.6 9.7-20.1 0.2-0.2 0.2-0.5 0.4-0.8 3.2-3 5.2-7.2 5.2-11.9V47.1c0-9-7.4-16.4-16.4-16.4H51.1c-9 0-16.4 7.3-16.4 16.4v65.5c0 4.7 2 8.9 5.2 11.9 0.1 0.3 0.2 0.5 0.4 0.8 18.5 28.4 18.5 61 0 89.4-0.2 0.2-0.2 0.5-0.4 0.8-3.2 3-5.2 7.2-5.2 11.9v65.5c0 9 7.4 16.4 16.4 16.4h98.4c9 0 16.4-7.3 16.4-16.4v-65.5c0-4.7-2-8.9-5.2-11.9-0.1-0.3-0.2-0.5-0.4-0.8-4.2-6.5-7.4-13.3-9.7-20.1h17c3.4 9.5 12.4 16.4 23.1 16.4h258.3c5.8 10 16.5 16.4 28.3 16.4 18.1 0 32.8-14.7 32.8-32.8v-49.2C510 127.3 495.3 112.6 477.2 112.6zM51.1 47.1h8.3v16.4h16.4V47.1h16.3v16.4h16.4V47.1h16.3v16.4h16.4V47.1h8.3l0 65.5H51.1V47.1zM141.2 292.9v-16.4h-16.4v16.4h-16.3v-16.4H92.1v16.4H75.7v-16.4H59.4v16.4h-8.3v-65.5h98.4l0 65.5H141.2zM139.5 210.9H61c12.5-26.4 12.5-55.6 0-81.9h78.5c-2.5 5.4-4.4 10.8-5.9 16.4H133v1.9c-3.7 15-3.7 30.4 0 45.3v1.9h0.5C135.1 200.1 137 205.6 139.5 210.9zM165.7 178.2H147c-0.6-5.5-0.6-10.9 0-16.4h18.6V178.2zM493.6 194.5c0 9-7.4 16.4-16.4 16.4-6.9 0-13-4.4-15.4-10.9l-1.9-5.4H190.7c-4.5 0-8.2-3.7-8.2-8.2v-32.8c0-4.5 3.7-8.2 8.2-8.2h269.3l1.9-5.4c2.3-6.5 8.5-10.9 15.4-10.9 9 0 16.4 7.3 16.4 16.4V194.5z" fill="#000000" data-fill-palette-color="accent"></path><rect x="264.2" y="161.8" width="16.4" height="16.4" fill="#000000" data-fill-palette-color="accent"></rect><rect x="231.4" y="161.8" width="16.4" height="16.4" fill="#000000" data-fill-palette-color="accent"></rect><rect x="198.6" y="161.8" width="16.4" height="16.4" fill="#000000" data-fill-palette-color="accent"></rect></g></svg></g></svg></g><g><path d="M25.711 111.609l-19.79-15.045 1.179-3.401 25.028-0.066-0.913 2.637-7.325-0.046-3.112 8.979 5.824 4.373zM18.927 103.276l2.639-7.613-13.084-0.127 1.503 1.035z" fill="#000000" data-fill-palette-color="primary"></path><path d="M24.949 83.512l-11.126-6.203 1.26-2.26 11.038 6.153c2.172 1.211 3.71 1.941 4.613 2.19 0.894 0.251 1.61 0.365 2.148 0.341 0.538-0.024 1.038-0.166 1.499-0.426v0c0.876-0.492 1.678-1.391 2.407-2.698 0.729-1.307 1.165-2.352 1.308-3.137 0.147-0.79 0.026-1.529-0.362-2.215-0.379-0.69-1.045-1.385-1.997-2.086-0.955-0.695-2.228-1.485-3.817-2.371v0l-11.038-6.153 1.265-2.27 10.95 6.104c2.314 1.29 3.861 2.264 4.643 2.925 0.782 0.66 1.394 1.313 1.835 1.96 0.439 0.638 0.724 1.353 0.854 2.143v0c0.278 1.66-0.219 3.632-1.492 5.916v0c-1.897 3.403-4.092 5.057-6.586 4.963v0c-1.394-0.06-3.004-0.556-4.83-1.489v0c-0.831-0.433-1.689-0.895-2.572-1.387z" fill="#000000" data-fill-palette-color="primary"></path><path d="M51.514 60.631l0.092-0.107c1.087-1.278 1.932-2.776 2.535-4.494v0l2.064 0.867c-0.209 0.849-0.61 1.747-1.203 2.693-0.589 0.942-1.156 1.733-1.702 2.375v0l-0.144 0.169c-2.376 2.793-4.766 3.98-7.172 3.562v0c-1.464-0.245-3.074-1.005-4.831-2.278v0c-0.834-0.621-1.724-1.334-2.668-2.137-0.939-0.799-1.816-1.584-2.628-2.356-0.803-0.772-1.494-1.541-2.073-2.307-0.577-0.757-1.017-1.52-1.317-2.289-0.302-0.779-0.434-1.581-0.395-2.407v0c0.073-1.698 0.938-3.521 2.593-5.466v0c1.066-1.253 2.003-2.194 2.813-2.823 0.81-0.629 1.38-1.034 1.709-1.214v0l1.404 2.111c-1.83 1.08-3.206 2.162-4.128 3.244-0.926 1.088-1.507 2.036-1.742 2.845-0.232 0.803-0.187 1.629 0.135 2.477v0c0.547 1.448 2.276 3.41 5.187 5.886v0l0.87 0.74c2.392 2.035 4.325 3.144 5.797 3.327v0c1.648 0.216 3.249-0.59 4.804-2.417z" fill="#000000" data-fill-palette-color="primary"></path><path d="M63.134 52.158l-13.732-16.337-4.822 4.053-1.47-1.749 11.825-9.94 1.47 1.749-4.991 4.196 13.732 16.336z" fill="#000000" data-fill-palette-color="primary"></path><path d="M74.879 42.983l-13.452-19.423 2.145-1.485 13.452 19.423z" fill="#000000" data-fill-palette-color="primary"></path><path d="M92.624 34.001l-0.859 0.407c-3.312 1.573-5.994 1.566-8.044-0.019v0c-1.193-0.911-2.328-2.349-3.403-4.315v0c-0.491-0.923-1.002-1.945-1.534-3.066-0.529-1.114-1-2.185-1.414-3.212-0.407-1.03-0.709-1.995-0.904-2.894-0.19-0.902-0.258-1.746-0.206-2.533 0.055-0.78 0.266-1.514 0.632-2.203v0c0.779-1.392 2.27-2.611 4.475-3.657v0l0.858-0.408c3.452-1.639 6.103-1.76 7.953-0.363v0c1.155 0.877 2.262 2.336 3.321 4.377v0c0.516 0.993 1.043 2.056 1.581 3.189 0.535 1.126 1.002 2.18 1.401 3.162 0.396 0.976 0.698 1.91 0.906 2.804 0.208 0.894 0.296 1.747 0.264 2.561-0.026 0.81-0.219 1.581-0.58 2.312v0c-0.742 1.516-2.225 2.802-4.447 3.858zM90.811 32.399l0.831-0.394c1.023-0.486 1.819-1.002 2.388-1.548 0.569-0.546 0.917-1.189 1.043-1.928v0c0.233-1.379-0.346-3.533-1.736-6.461v0l-0.716-1.507c-0.668-1.406-1.298-2.64-1.891-3.701-0.593-1.061-1.234-1.891-1.921-2.491v0c-1.41-1.241-3.229-1.332-5.458-0.273v0l-1.178 0.559c-2.265 1.075-3.368 2.491-3.31 4.247v0c0.04 1.122 0.343 2.325 0.908 3.609 0.565 1.284 1.083 2.422 1.554 3.414v0l0.715 1.507c1.304 2.746 2.63 4.485 3.977 5.218v0c1.315 0.726 2.913 0.643 4.794-0.251z" fill="#000000" data-fill-palette-color="primary"></path><path d="M107.072 28.315l-5.706-22.927 2.03-0.505 14.695 14.042 2.067 2.486-1.115-3.056-4.07-16.354 2.325-0.578 5.707 22.926-2.139 0.533-14.614-14.011-1.957-2.253 1.086 2.98 4.017 16.138z" fill="#000000" data-fill-palette-color="primary"></path><path d="M136.849 22.69l0.796-2.007c0 0 0.117 0.059 0.351 0.179v0c1.109 0.553 2.293 0.842 3.553 0.865v0c1.092 0.02 1.87-0.305 2.334-0.977v0c0.444-0.646 0.68-1.767 0.71-3.364v0l0.326-17.386 2.598 0.049-0.294 15.657c-0.036 1.927-0.142 3.284-0.319 4.069-0.177 0.792-0.391 1.429-0.642 1.909-0.245 0.474-0.579 0.879-1.004 1.215v0c-0.855 0.685-2.105 1.012-3.75 0.981v0c-1.422-0.027-2.751-0.311-3.988-0.853v0c-0.294-0.127-0.518-0.239-0.671-0.337z" fill="#000000" data-fill-palette-color="primary"></path><path d="M156.442 13.8l2.136-12.558 2.551 0.434-2.118 12.459c-0.417 2.452-0.592 4.145-0.525 5.079 0.061 0.926 0.193 1.639 0.395 2.138 0.202 0.499 0.503 0.923 0.902 1.272v0c0.756 0.662 1.871 1.118 3.346 1.368 1.475 0.251 2.606 0.313 3.393 0.188 0.794-0.125 1.45-0.485 1.968-1.081 0.524-0.588 0.957-1.447 1.3-2.578 0.336-1.132 0.657-2.596 0.962-4.39v0l2.118-12.458 2.561 0.435-2.101 12.359c-0.444 2.611-0.847 4.396-1.208 5.353-0.361 0.957-0.773 1.752-1.236 2.384-0.455 0.627-1.034 1.133-1.735 1.52v0c-1.472 0.816-3.497 1.005-6.075 0.567v0c-3.84-0.653-6.132-2.171-6.876-4.553v0c-0.409-1.334-0.478-3.018-0.207-5.05v0c0.13-0.928 0.28-1.89 0.449-2.888z" fill="#000000" data-fill-palette-color="primary"></path><path d="M178.534 30.098l8.574-22.015 1.95 0.759 3.893 19.95 0.253 3.223 0.854-3.14 6.116-15.703 2.233 0.869-8.575 22.016-2.053-0.8-3.846-19.877-0.297-2.969-0.834 3.06-6.036 15.497z" fill="#000000" data-fill-palette-color="primary"></path><path d="M208.436 43.115l0.119 0.077c1.412 0.906 3.01 1.543 4.793 1.91v0l-0.582 2.161c-0.869-0.093-1.812-0.37-2.831-0.831-1.012-0.457-1.872-0.913-2.581-1.369v0l-0.187-0.12c-3.086-1.98-4.583-4.19-4.491-6.629v0c0.047-1.483 0.584-3.181 1.611-5.093v0c0.504-0.91 1.091-1.887 1.76-2.931 0.666-1.038 1.327-2.011 1.982-2.92 0.657-0.9 1.327-1.687 2.009-2.363 0.672-0.674 1.37-1.211 2.092-1.612 0.731-0.404 1.509-0.641 2.332-0.714v0c1.693-0.155 3.614 0.458 5.764 1.837v0c1.384 0.888 2.442 1.691 3.175 2.41 0.732 0.718 1.21 1.229 1.431 1.531v0l-1.903 1.674c-1.315-1.669-2.572-2.888-3.768-3.656-1.203-0.772-2.22-1.22-3.052-1.346-0.827-0.122-1.639 0.033-2.437 0.466v0c-1.361 0.736-3.074 2.712-5.138 5.929v0l-0.617 0.961c-1.696 2.643-2.536 4.707-2.52 6.191v0c0.007 1.662 1.02 3.141 3.039 4.437z" fill="#000000" data-fill-palette-color="primary"></path><path d="M218.391 53.495l14.348-15.799-4.662-4.234 1.536-1.691 11.435 10.385-1.536 1.692-4.827-4.384-14.348 15.798z" fill="#000000" data-fill-palette-color="primary"></path><path d="M229.058 63.904l17.444-15.934 1.759 1.926-17.444 15.934z" fill="#000000" data-fill-palette-color="primary"></path><path d="M240.331 80.285l-0.519-0.796c-2.001-3.072-2.354-5.73-1.056-7.975v0c0.743-1.304 2.017-2.621 3.821-3.95v0c0.85-0.61 1.794-1.253 2.833-1.93 1.033-0.673 2.032-1.283 2.995-1.83 0.967-0.541 1.882-0.969 2.747-1.283 0.869-0.309 1.696-0.49 2.482-0.543 0.78-0.05 1.536 0.061 2.268 0.332v0c1.484 0.586 2.891 1.901 4.223 3.945v0l0.519 0.796c2.086 3.202 2.56 5.813 1.423 7.833v0c-0.714 1.262-2.012 2.554-3.894 3.876v0c-0.915 0.645-1.898 1.309-2.949 1.994-1.045 0.681-2.027 1.284-2.946 1.811-0.914 0.523-1.8 0.947-2.658 1.273-0.858 0.326-1.692 0.527-2.502 0.604-0.807 0.083-1.596-0.006-2.369-0.266v0c-1.602-0.533-3.074-1.83-4.418-3.891zM241.676 78.275l0.502 0.77c0.618 0.949 1.236 1.668 1.853 2.16 0.617 0.491 1.301 0.749 2.05 0.776v0c1.398 0.047 3.455-0.815 6.171-2.585v0l1.398-0.911c1.304-0.85 2.443-1.64 3.415-2.369 0.972-0.73 1.709-1.476 2.211-2.237v0c1.041-1.563 0.888-3.378-0.458-5.445v0l-0.712-1.093c-1.369-2.101-2.919-3.005-4.652-2.713v0c-1.107 0.19-2.259 0.651-3.455 1.383-1.197 0.731-2.255 1.397-3.175 1.996v0l-1.398 0.911c-2.547 1.659-4.093 3.206-4.639 4.639v0c-0.544 1.4-0.247 2.973 0.889 4.718z" fill="#000000" data-fill-palette-color="primary"></path><path d="M247.903 93.846l21.954-8.731 0.773 1.944-11.944 16.446-2.186 2.382 2.879-1.515 15.66-6.228 0.885 2.226-21.954 8.731-0.814-2.047 11.923-16.362 1.97-2.241-2.807 1.475-15.453 6.146z" fill="#000000" data-fill-palette-color="primary"></path><path d="M8.35 179.289l24.857-0.431 1.178 3.4-19.618 15.543-0.914-2.637 5.782-4.497-3.113-8.979-7.281 0.17zM18.836 181.635l2.639 7.613 10.357-7.998-1.821 0.117z" fill="#000000" data-fill-palette-color="primary"></path><path d="M27.92 199.712l11.126-6.203 1.26 2.261-11.037 6.153c-2.172 1.211-3.602 2.135-4.288 2.773-0.684 0.628-1.157 1.177-1.42 1.647-0.262 0.47-0.404 0.97-0.426 1.499v0c-0.042 1.004 0.301 2.159 1.03 3.466 0.729 1.307 1.388 2.228 1.979 2.762 0.595 0.541 1.286 0.826 2.075 0.858 0.786 0.04 1.728-0.161 2.825-0.603 1.093-0.447 2.435-1.114 4.024-2v0l11.037-6.153 1.266 2.269-10.95 6.104c-2.314 1.29-3.956 2.094-4.929 2.412-0.972 0.318-1.85 0.495-2.632 0.53-0.774 0.038-1.531-0.096-2.272-0.4v0c-1.558-0.636-2.974-2.096-4.248-4.38v0c-1.897-3.403-2.15-6.14-0.758-8.212v0c0.784-1.155 2.053-2.263 3.806-3.325v0c0.805-0.48 1.649-0.966 2.532-1.458z" fill="#000000" data-fill-palette-color="primary"></path><path d="M40.43 233.678l0.091 0.108c1.087 1.278 2.43 2.352 4.029 3.223v0l-1.186 1.898c-0.804-0.342-1.626-0.882-2.465-1.619-0.835-0.732-1.526-1.419-2.072-2.061v0l-0.144-0.169c-2.376-2.793-3.165-5.342-2.366-7.65v0c0.477-1.405 1.484-2.873 3.023-4.403v0c0.747-0.724 1.593-1.488 2.537-2.291 0.939-0.799 1.855-1.538 2.746-2.217 0.891-0.669 1.76-1.228 2.61-1.676 0.839-0.449 1.663-0.76 2.47-0.934 0.817-0.173 1.63-0.175 2.439-0.004v0c1.665 0.345 3.325 1.49 4.98 3.435v0c1.066 1.253 1.844 2.329 2.336 3.23 0.492 0.9 0.8 1.528 0.924 1.882v0l-2.308 1.047c-0.773-1.98-1.62-3.511-2.541-4.594-0.926-1.088-1.769-1.814-2.528-2.176-0.755-0.357-1.578-0.445-2.468-0.264v0c-1.517 0.308-3.73 1.7-6.641 4.176v0l-0.87 0.741c-2.392 2.035-3.796 3.765-4.212 5.189v0c-0.477 1.592 0.061 3.302 1.616 5.13z" fill="#000000" data-fill-palette-color="primary"></path><path d="M51.311 246.788l13.732-16.337-4.821-4.053 1.47-1.749 11.825 9.94-1.47 1.749-4.991-4.196-13.733 16.337z" fill="#000000" data-fill-palette-color="primary"></path><path d="M64.417 257.003l13.453-19.423 2.144 1.485-13.452 19.423z" fill="#000000" data-fill-palette-color="primary"></path><path d="M84.474 268.044l-0.859-0.408c-3.312-1.573-5.002-3.655-5.07-6.246v0c-0.049-1.5 0.349-3.289 1.194-5.365v0c0.405-0.964 0.874-2.006 1.406-3.126 0.529-1.114 1.061-2.156 1.596-3.126 0.541-0.967 1.098-1.81 1.671-2.53 0.579-0.717 1.19-1.304 1.832-1.76 0.639-0.45 1.341-0.751 2.107-0.902v0c1.571-0.276 3.459 0.109 5.663 1.155v0l0.858 0.408c3.452 1.639 5.221 3.617 5.308 5.934v0c0.051 1.449-0.38 3.229-1.293 5.339v0c-0.443 1.028-0.934 2.108-1.472 3.241-0.535 1.126-1.057 2.154-1.565 3.084-0.506 0.924-1.039 1.749-1.6 2.475-0.561 0.726-1.167 1.334-1.817 1.823-0.644 0.492-1.364 0.83-2.16 1.012v0c-1.644 0.383-3.578 0.047-5.799-1.008zM84.569 265.627l0.831 0.395c1.023 0.486 1.926 0.776 2.709 0.872 0.783 0.096 1.501-0.041 2.153-0.411v0c1.216-0.691 2.519-2.501 3.91-5.429v0l0.715-1.507c0.668-1.406 1.225-2.675 1.673-3.805 0.447-1.131 0.686-2.151 0.715-3.063v0c0.07-1.877-1.009-3.344-3.237-4.402v0l-1.178-0.559c-2.265-1.075-4.059-1.036-5.383 0.119v0c-0.844 0.741-1.585 1.736-2.223 2.984-0.638 1.249-1.192 2.37-1.664 3.362v0l-0.715 1.507c-1.304 2.746-1.814 4.873-1.53 6.38v0c0.268 1.478 1.343 2.663 3.224 3.557z" fill="#000000" data-fill-palette-color="primary"></path><path d="M102.634 274.395l5.707-22.926 2.031 0.505 6.397 19.293 0.66 3.165 0.448-3.223 4.071-16.353 2.325 0.578-5.707 22.927-2.138-0.532-6.341-19.227-0.673-2.907-0.438 3.141-4.017 16.138z" fill="#000000" data-fill-palette-color="primary"></path><path d="M137.164 278.984l0.72-2.036c0 0 0.119 0.055 0.357 0.165v0c1.129 0.511 2.323 0.755 3.583 0.732v0c1.092-0.02 1.857-0.375 2.296-1.064v0c0.419-0.662 0.614-1.791 0.584-3.389v0l-0.327-17.385 2.598-0.049 0.294 15.657c0.036 1.927-0.019 3.287-0.166 4.078-0.147 0.798-0.337 1.442-0.571 1.932-0.227 0.483-0.546 0.9-0.957 1.252v0c-0.829 0.717-2.066 1.09-3.71 1.121v0c-1.422 0.027-2.761-0.208-4.017-0.703v0c-0.299-0.116-0.527-0.219-0.684-0.311z" fill="#000000" data-fill-palette-color="primary"></path><path d="M155.872 267.726l-2.135-12.558 2.551-0.434 2.119 12.458c0.417 2.452 0.811 4.108 1.183 4.968 0.364 0.854 0.724 1.483 1.08 1.887 0.356 0.404 0.78 0.705 1.271 0.902v0c0.932 0.375 2.135 0.437 3.61 0.186 1.475-0.251 2.563-0.566 3.265-0.945 0.708-0.38 1.208-0.937 1.5-1.67 0.3-0.728 0.425-1.682 0.375-2.863-0.057-1.18-0.238-2.667-0.544-4.461v0l-2.118-12.458 2.562-0.436 2.101 12.359c0.444 2.611 0.654 4.428 0.629 5.451-0.024 1.023-0.151 1.909-0.378 2.659-0.223 0.742-0.601 1.411-1.135 2.008v0c-1.119 1.257-2.968 2.104-5.547 2.543v0c-3.84 0.653-6.505-0.022-7.994-2.025v0c-0.827-1.124-1.449-2.69-1.865-4.698v0c-0.184-0.919-0.36-1.877-0.53-2.873z" fill="#000000" data-fill-palette-color="primary"></path><path d="M185.202 271.904l-8.574-22.016 1.95-0.759 16.36 12.061 2.366 2.203-1.494-2.89-6.116-15.704 2.232-0.87 8.575 22.016-2.054 0.8-16.276-12.04-2.227-1.986 1.455 2.818 6.036 15.497z" fill="#000000" data-fill-palette-color="primary"></path><path d="M216.296 254.013l0.119-0.077c1.412-0.906 2.657-2.093 3.733-3.56v0l1.722 1.429c-0.447 0.751-1.092 1.493-1.934 2.227-0.837 0.729-1.61 1.322-2.32 1.776v0l-0.187 0.12c-3.086 1.98-5.718 2.42-7.897 1.321v0c-1.329-0.661-2.649-1.856-3.959-3.586v0c-0.617-0.837-1.261-1.778-1.931-2.821-0.666-1.038-1.276-2.044-1.829-3.019-0.544-0.972-0.981-1.909-1.311-2.81-0.332-0.892-0.53-1.75-0.594-2.574-0.062-0.833 0.045-1.639 0.322-2.417v0c0.565-1.604 1.922-3.095 4.072-4.475v0c1.384-0.888 2.555-1.516 3.513-1.882 0.958-0.367 1.621-0.588 1.989-0.664v0l0.728 2.428c-2.065 0.5-3.696 1.135-4.893 1.903-1.203 0.772-2.034 1.51-2.495 2.213-0.455 0.701-0.653 1.504-0.592 2.41v0c0.102 1.544 1.185 3.924 3.249 7.141v0l0.617 0.961c1.696 2.643 3.222 4.267 4.579 4.87v0c1.514 0.686 3.28 0.382 5.299-0.914z" fill="#000000" data-fill-palette-color="primary"></path><path d="M230.745 244.987l-14.348-15.799-4.663 4.235-1.536-1.692 11.436-10.385 1.536 1.691-4.828 4.384 14.348 15.799z" fill="#000000" data-fill-palette-color="primary"></path><path d="M242.625 233.368l-17.445-15.934 1.759-1.926 17.445 15.934z" fill="#000000" data-fill-palette-color="primary"></path><path d="M256.252 214.967l-0.519 0.796c-2.001 3.072-4.291 4.468-6.868 4.189v0c-1.493-0.152-3.212-0.786-5.157-1.899v0c-0.901-0.531-1.871-1.135-2.91-1.812-1.033-0.673-1.995-1.34-2.884-2-0.886-0.665-1.647-1.33-2.284-1.994-0.633-0.67-1.133-1.354-1.5-2.051-0.361-0.693-0.565-1.43-0.612-2.209v0c-0.064-1.594 0.571-3.413 1.903-5.457v0l0.518-0.796c2.086-3.202 4.283-4.691 6.59-4.467v0c1.443 0.144 3.149 0.809 5.119 1.996v0c0.959 0.577 1.964 1.207 3.015 1.892 1.045 0.681 1.994 1.335 2.847 1.963 0.848 0.625 1.594 1.264 2.239 1.917 0.644 0.653 1.166 1.335 1.563 2.044 0.402 0.704 0.64 1.463 0.714 2.275v0c0.16 1.681-0.432 3.552-1.774 5.613zM253.87 214.549l0.502-0.77c0.618-0.949 1.027-1.805 1.226-2.568 0.199-0.763 0.16-1.493-0.118-2.189v0c-0.522-1.297-2.141-2.831-4.858-4.6v0l-1.398-0.911c-1.304-0.85-2.487-1.572-3.547-2.166-1.061-0.594-2.04-0.967-2.94-1.119v0c-1.85-0.321-3.449 0.552-4.795 2.619v0l-0.712 1.093c-1.369 2.101-1.569 3.884-0.602 5.351v0c0.621 0.936 1.508 1.803 2.66 2.602 1.153 0.799 2.189 1.499 3.11 2.098v0l1.397 0.911c2.547 1.659 4.586 2.449 6.119 2.369v0c1.5-0.068 2.819-0.975 3.956-2.72z" fill="#000000" data-fill-palette-color="primary"></path><path d="M264.977 197.825l-21.954-8.731 0.773-1.945 19.977-3.751 3.225-0.23-3.133-0.876-15.66-6.228 0.885-2.226 21.954 8.731-0.814 2.048-19.904 3.704-2.971 0.276 3.054 0.856 15.453 6.145z" fill="#000000" data-fill-palette-color="primary"></path><path d="M3.471 142.44c0-5.05 4.094-9.144 9.144-9.144 5.05 0 9.144 4.094 9.144 9.144 0 5.05-4.094 9.144-9.144 9.144-5.05 0-9.144-4.094-9.144-9.144z" fill="#000000" data-fill-palette-color="primary"></path><path d="M258.241 142.44c0-5.05 4.094-9.144 9.144-9.144 5.05 0 9.144 4.094 9.144 9.144 0 5.05-4.094 9.144-9.144 9.144-5.05 0-9.144-4.094-9.144-9.144z" fill="#000000" data-fill-palette-color="primary"></path></g></svg></g></svg></g></svg></g></svg></g><defs></defs></svg><rect width="280" height="280" fill="none" stroke="none" visibility="hidden"></rect></g></svg></g></svg>